<?xml version="1.0" standalone="no"?>
<!DOCTYPE svg PUBLIC "-//W3C//DTD SVG 1.1//EN" "http://www.w3.org/Graphics/SVG/1.1/DTD/svg11.dtd" >
<svg>
<metadata>
Created by FontForge 20120731 at Mon Dec 11 15:20:46 2017
 By www-data
Copyright (c) 1990-1996 ParaGraph
</metadata>
<defs>
<font id="PragmaticaC-BoldItalic" horiz-adv-x="675" >
  <font-face 
    font-family="PragmaticaC"
    font-weight="700"
    font-style="italic"
    font-stretch="normal"
    units-per-em="1000"
    panose-1="0 0 8 0 0 0 0 0 0 0"
    ascent="774"
    descent="-226"
    x-height="508"
    cap-height="700"
    bbox="-360 -226 1398 904"
    underline-thickness="50"
    underline-position="-50"
    slope="-12"
    stemh="102"
    stemv="152"
    unicode-range="U+0020-2122"
  />
<missing-glyph horiz-adv-x="233" 
 />
    <glyph glyph-name=".notdef" horiz-adv-x="233" 
 />
    <glyph glyph-name="space" unicode=" " horiz-adv-x="233" 
 />
    <glyph glyph-name="space" unicode="&#xa0;" horiz-adv-x="233" 
 />
    <glyph glyph-name="exclam" unicode="!" horiz-adv-x="384" 
d="M200 700h173l-39 -183l-106 -292h-86l18 292zM56 0l33 158h166l-33 -158h-166z" />
    <glyph glyph-name="quotedbl" unicode="&#x22;" horiz-adv-x="498" 
d="M324 700l-94 -192h-66l-12 192h172zM536 700l-94 -192h-66l-12 192h172z" />
    <glyph glyph-name="numbersign" unicode="#" horiz-adv-x="735" 
d="M482 10h-80l23 155h-133l-23 -155h-80l23 155h-134l18 112h134l24 153h-134l17 112h134l24 153h80l-24 -153h133l24 153h80l-24 -153h134l-17 -112h-134l-24 -153h134l-18 -112h-134zM443 277l24 153h-133l-24 -153h133z" />
    <glyph glyph-name="dollar" unicode="$" horiz-adv-x="641" 
d="M25 225h144c-16 -94 46 -120 89 -122l41 194c-107 31 -194 84 -194 200c0 93 67 217 277 219l14 62h81l-13 -62c149 -8 184 -89 184 -165c0 -15 -2 -29 -5 -44h-140c1 5 2 11 2 16c0 60 -42 75 -67 77l-37 -173c176 -44 199 -139 199 -208c0 -175 -172 -229 -292 -235
l-16 -79h-82l17 79c-155 3 -213 87 -202 241zM371 282l-39 -179c77 1 110 55 110 100c0 56 -53 74 -71 79zM331 445l32 155c-54 -4 -101 -21 -101 -79c0 -47 37 -70 69 -76z" />
    <glyph glyph-name="percent" unicode="%" horiz-adv-x="1016" 
d="M170 0l603 700h105l-602 -700h-106zM108 529c30 159 159 184 214 184c62 0 161 -28 161 -161c0 -93 -59 -239 -220 -239c-63 0 -161 26 -161 163c0 18 3 35 6 53zM213 508c-2 -11 -4 -23 -4 -35c0 -46 18 -81 58 -81c65 0 109 96 109 167c0 54 -27 75 -58 75
s-84 -23 -105 -126zM576 203c30 159 159 184 214 184c62 0 161 -28 161 -161c0 -93 -59 -239 -220 -239c-63 0 -161 26 -161 163c0 18 3 35 6 53zM681 182c-2 -11 -4 -23 -4 -35c0 -46 18 -81 58 -81c65 0 109 96 109 167c0 54 -27 75 -58 75s-84 -23 -105 -126z" />
    <glyph glyph-name="ampersand" unicode="&#x26;" horiz-adv-x="705" 
d="M532 323h132c-15 -40 -45 -102 -109 -170l94 -153h-176l-34 58c-68 -55 -123 -75 -218 -75c-136 0 -196 89 -196 185c0 135 107 194 210 239c-19 30 -35 77 -35 115c0 66 57 185 207 185c103 0 174 -56 174 -143c0 -101 -89 -164 -160 -192l72 -116c13 14 25 32 39 67z
M383 152l-92 158c-44 -16 -107 -56 -107 -126c0 -25 14 -77 84 -77c15 0 70 1 115 45zM367 457c88 29 102 77 102 101c0 17 -8 55 -64 55c-47 0 -71 -37 -71 -71s16 -51 33 -85z" />
    <glyph glyph-name="quotesingle" unicode="'" horiz-adv-x="286" 
d="M324 700l-94 -192h-66l-12 192h172z" />
    <glyph glyph-name="parenleft" unicode="(" horiz-adv-x="397" 
d="M320 700h122c-207 -301 -221 -500 -221 -580c0 -92 8 -203 33 -305h-109c-57 140 -79 236 -79 332c0 221 110 385 254 553z" />
    <glyph glyph-name="parenright" unicode=")" horiz-adv-x="409" 
d="M81 -185h-122c99 145 222 363 222 580c0 101 -12 216 -34 305h115c43 -110 79 -203 79 -331c0 -220 -116 -386 -260 -554z" />
    <glyph glyph-name="asterisk" unicode="*" horiz-adv-x="483" 
d="M302 495l-87 -88l-53 52l83 83l-105 51l35 67l102 -51l16 114l74 -8l-16 -114l119 24l13 -71l-114 -22l59 -98l-67 -37z" />
    <glyph glyph-name="plus" unicode="+" 
d="M73 390h243v243h80v-243h243v-80h-243v-243h-80v243h-243v80z" />
    <glyph glyph-name="comma" unicode="," horiz-adv-x="385" 
d="M52 0l34 158h165l-34 -158c-9 -43 -43 -175 -203 -177l17 79c83 5 103 71 106 92l1 6h-86z" />
    <glyph glyph-name="hyphenminus" horiz-adv-x="450" 
d="M69 205l26 125h288l-26 -125h-288z" />
    <glyph glyph-name="period" unicode="." horiz-adv-x="385" 
d="M52 0l34 158h165l-34 -158h-165z" />
    <glyph glyph-name="slash" unicode="/" horiz-adv-x="455" 
d="M-54 -185l530 885h80l-530 -885h-80z" />
    <glyph glyph-name="zero" unicode="0" horiz-adv-x="658" 
d="M285 -20c-69 0 -238 13 -238 289c0 233 125 451 359 451c182 0 245 -114 245 -277c0 -175 -93 -463 -366 -463zM302 102c166 0 189 314 189 359c0 134 -72 137 -96 137c-154 0 -188 -266 -188 -358c0 -135 74 -138 95 -138z" />
    <glyph glyph-name="one" unicode="1" horiz-adv-x="652" 
d="M175 492l17 83h21c45 0 163 20 206 125h123l-148 -700h-165l104 492h-158z" />
    <glyph glyph-name="two" unicode="2" horiz-adv-x="646" 
d="M563 122l-26 -122h-537c26 145 114 207 239 280c116 68 253 114 253 235c0 72 -65 83 -102 83c-106 0 -136 -89 -143 -140h-153c48 230 197 262 300 262c131 0 256 -48 256 -186c0 -127 -80 -198 -207 -268c-111 -61 -184 -81 -224 -144h344z" />
    <glyph glyph-name="three" unicode="3" horiz-adv-x="647" 
d="M34 241h156c-3 -13 -4 -27 -4 -40c0 -90 68 -99 109 -99c112 0 139 83 139 129c0 69 -59 74 -92 74h-69l24 115h53c37 0 134 4 134 98c0 34 -21 80 -107 80c-77 0 -118 -48 -133 -129h-150c39 225 190 251 296 251c81 0 243 -11 243 -166c0 -48 -15 -160 -159 -194l-1 -2
c46 -6 116 -37 116 -133c0 -66 -35 -245 -306 -245c-211 0 -253 107 -253 194c0 22 0 45 4 67z" />
    <glyph glyph-name="four" unicode="4" horiz-adv-x="649" 
d="M341 157h-339l29 135l416 408h167l-89 -421h96l-27 -122h-95l-34 -157h-158zM173 279h200l54 258z" />
    <glyph glyph-name="five" unicode="5" horiz-adv-x="647" 
d="M37 203h155v-13c0 -85 82 -88 102 -88c107 0 148 106 148 169c0 30 -9 104 -100 104c-35 0 -76 -7 -111 -50h-155l125 375h446l-25 -122h-340l-52 -152c50 49 115 64 171 64c141 0 201 -98 201 -209c0 -97 -44 -301 -309 -301c-69 0 -266 2 -256 223z" />
    <glyph glyph-name="six" unicode="6" horiz-adv-x="652" 
d="M659 535h-143c0 44 -55 63 -98 63c-66 0 -142 -30 -175 -165c55 41 109 49 153 49c129 0 215 -69 215 -190c0 -120 -71 -312 -304 -312c-53 0 -258 -1 -258 246c0 254 123 494 377 494c211 0 232 -131 233 -185zM201 242c-2 -11 -3 -23 -3 -34c0 -33 16 -106 112 -106
c116 0 152 111 152 168c0 47 -33 90 -110 90c-89 0 -138 -58 -151 -118z" />
    <glyph glyph-name="seven" unicode="7" horiz-adv-x="643" 
d="M95 578l27 122h578l-25 -116c-106 -90 -189 -179 -250 -276c-66 -105 -102 -189 -132 -308h-171c19 86 73 203 125 285c56 87 159 215 260 288v5h-412z" />
    <glyph glyph-name="eight" unicode="8" horiz-adv-x="649" 
d="M288 -20c-115 0 -252 26 -252 187c0 112 80 192 168 212c-49 15 -80 59 -80 122c0 120 105 219 285 219c44 0 226 -3 226 -182c0 -87 -65 -149 -133 -172c44 -17 98 -58 98 -134c0 -119 -76 -252 -312 -252zM300 102c86 0 140 57 140 134c0 21 -5 89 -106 89
c-92 0 -138 -68 -138 -131c0 -61 43 -92 104 -92zM366 418c102 0 119 76 119 109c0 18 -10 71 -93 71c-67 0 -118 -42 -118 -103c0 -28 10 -77 92 -77z" />
    <glyph glyph-name="nine" unicode="9" horiz-adv-x="654" 
d="M39 164h142c2 -43 55 -62 99 -62c100 0 149 68 175 163c-46 -34 -90 -49 -153 -49c-104 0 -216 50 -216 195c0 156 100 309 310 309c240 0 253 -180 253 -247c0 -252 -125 -493 -377 -493c-230 0 -234 152 -233 184zM495 452c2 10 4 21 4 31c0 60 -30 115 -110 115
c-118 0 -153 -112 -153 -169c0 -64 51 -91 109 -91c63 0 133 35 150 114z" />
    <glyph glyph-name="colon" unicode=":" horiz-adv-x="379" 
d="M125 350l33 158h166l-33 -158h-166zM52 0l33 158h166l-33 -158h-166z" />
    <glyph glyph-name="semicolon" unicode=";" horiz-adv-x="379" 
d="M125 350l33 158h166l-33 -158h-166zM52 0l33 158h166l-33 -158c-32 -153 -143 -176 -204 -177l17 79c83 5 103 71 106 92l1 6h-86z" />
    <glyph glyph-name="less" unicode="&#x3c;" horiz-adv-x="648" 
d="M147 357l461 -265l-41 -70l-506 293v84l506 293l41 -70z" />
    <glyph glyph-name="equal" unicode="=" 
d="M73 490h566v-80h-566v80zM73 290h566v-80h-566v80z" />
    <glyph glyph-name="greater" unicode="&#x3e;" horiz-adv-x="651" 
d="M541 357l-461 265l41 70l506 -293v-84l-506 -293l-41 70z" />
    <glyph glyph-name="question" unicode="?" horiz-adv-x="584" 
d="M242 477h-155c45 232 227 235 291 235c82 0 228 -14 228 -163c0 -102 -58 -148 -111 -179c-83 -49 -146 -67 -155 -145h-126c15 105 46 136 101 172c86 56 128 63 128 135c0 62 -56 65 -77 65c-89 0 -117 -70 -124 -120zM146 0l34 158h165l-34 -158h-165z" />
    <glyph glyph-name="at" unicode="@" horiz-adv-x="837" 
d="M593 104l38 -70c-61 -39 -114 -54 -194 -54c-248 0 -370 174 -370 370c0 218 162 370 370 370c207 0 370 -127 370 -354c0 -108 -65 -224 -186 -224c-51 0 -73 16 -85 40c-31 -48 -113 -46 -120 -46c-132 0 -178 103 -178 201c0 109 66 202 172 202c28 0 72 -4 102 -34
l1 20h99v-254c0 -39 6 -45 25 -45c61 0 87 73 87 140c0 196 -149 277 -287 277c-180 0 -288 -140 -288 -293c0 -170 115 -294 288 -294c63 0 112 18 156 48zM510 337c0 89 -38 117 -83 117c-48 0 -86 -36 -86 -117c0 -33 9 -117 85 -117c4 0 84 1 84 117z" />
    <glyph glyph-name="A" unicode="A" horiz-adv-x="677" 
d="M348 700h167l114 -700h-171l-17 131h-254l-73 -131h-177zM247 250h183l-35 267z" />
    <glyph glyph-name="B" unicode="B" horiz-adv-x="728" 
d="M168 700h352c153 0 186 -77 186 -148c0 -62 -34 -156 -153 -182l-1 -2c58 -14 116 -52 116 -145c0 -129 -100 -223 -314 -223h-334zM304 564l-29 -136h152c33 0 99 14 99 77c0 36 -29 59 -74 59h-148zM247 292l-33 -156h170c43 0 109 18 109 83c0 60 -38 73 -95 73h-151z
" />
    <glyph glyph-name="C" unicode="C" horiz-adv-x="729" 
d="M538 247h164c-28 -107 -123 -267 -356 -267c-206 0 -294 127 -294 285c0 157 80 455 406 455c112 0 285 -26 285 -207c0 -17 0 -34 -3 -51h-163c1 7 1 14 1 21c0 70 -51 101 -127 101c-165 0 -221 -186 -221 -294c0 -166 103 -174 133 -174c41 0 127 5 175 131z" />
    <glyph glyph-name="D" unicode="D" horiz-adv-x="757" 
d="M168 700h296c215 0 282 -124 282 -286c0 -413 -385 -414 -426 -414h-300zM304 564l-90 -428h106c223 0 248 213 248 289c0 94 -52 139 -147 139h-117z" />
    <glyph glyph-name="E" unicode="E" horiz-adv-x="655" 
d="M275 425h342l-27 -136h-344l-32 -153h397l-28 -136h-563l148 700h554l-28 -136h-390z" />
    <glyph glyph-name="F" unicode="F" horiz-adv-x="590" 
d="M270 404h291l-28 -136h-291l-57 -268h-165l148 700h509l-29 -136h-344z" />
    <glyph glyph-name="G" unicode="G" horiz-adv-x="787" 
d="M454 380h297l-81 -380h-123l13 59h-2c-54 -65 -133 -79 -219 -79c-192 0 -289 113 -289 306c0 182 102 434 421 434c224 0 310 -131 293 -247h-172v19c0 68 -63 92 -124 92c-157 0 -240 -134 -240 -284c0 -116 56 -184 161 -184c94 0 155 63 177 137h-140z" />
    <glyph glyph-name="H" unicode="H" horiz-adv-x="732" 
d="M248 301l-63 -301h-165l148 700h165l-57 -263h256l57 263h165l-148 -700h-165l63 301h-256z" />
    <glyph glyph-name="I" unicode="I" horiz-adv-x="311" 
d="M168 700h165l-148 -700h-165z" />
    <glyph glyph-name="J" unicode="J" horiz-adv-x="577" 
d="M22 258h165l-6 -28c-3 -13 -6 -26 -6 -39c0 -45 18 -75 67 -75c69 0 85 40 101 114l100 470h165l-95 -447c-27 -128 -63 -273 -285 -273c-173 0 -215 95 -215 184c0 28 6 74 9 94z" />
    <glyph glyph-name="K" unicode="K" horiz-adv-x="713" 
d="M271 405l322 295h208l-343 -309l205 -391h-188l-147 305l-96 -83l-47 -222h-165l148 700h165z" />
    <glyph glyph-name="L" unicode="L" horiz-adv-x="581" 
d="M540 136l-29 -136h-491l148 700h165l-119 -564h326z" />
    <glyph glyph-name="M" unicode="M" horiz-adv-x="944" 
d="M357 0l-64 508h-2l-106 -508h-165l148 700h239l61 -481l252 481h246l-148 -700h-165l110 508h-3l-268 -508h-135z" />
    <glyph glyph-name="N" unicode="N" horiz-adv-x="758" 
d="M278 442h-2l-91 -442h-165l148 700h161l193 -440h3l90 440h165l-148 -700h-162z" />
    <glyph glyph-name="O" unicode="O" horiz-adv-x="792" 
d="M364 -20c-279 0 -312 203 -312 289c0 173 109 451 422 451c194 0 307 -107 307 -289c0 -174 -105 -451 -417 -451zM377 116c172 0 226 186 226 292c0 77 -20 176 -148 176c-172 0 -225 -184 -225 -292c0 -99 38 -176 147 -176z" />
    <glyph glyph-name="P" unicode="P" horiz-adv-x="685" 
d="M168 700h327c80 0 217 -20 217 -191c0 -72 -30 -269 -319 -269h-157l-51 -240h-165zM304 564l-40 -188h130c114 0 143 54 143 103c0 65 -39 85 -103 85h-130z" />
    <glyph glyph-name="Q" unicode="Q" horiz-adv-x="796" 
d="M632 78l64 -78l-90 -71l-70 87c-26 -14 -75 -36 -171 -36c-73 0 -313 9 -313 289c0 235 156 451 422 451c201 0 311 -107 311 -288c0 -130 -53 -263 -153 -354zM462 283l67 -89c70 66 78 171 78 196c0 34 5 194 -145 194c-153 0 -232 -144 -232 -290
c0 -145 76 -178 148 -178c21 0 48 4 78 18l-73 88z" />
    <glyph glyph-name="R" unicode="R" horiz-adv-x="720" 
d="M22 0l148 700h339c178 0 214 -101 214 -175c0 -88 -56 -185 -157 -205l-1 -3c44 -15 73 -42 73 -93c0 -19 -3 -40 -15 -99c-6 -30 -11 -58 -11 -80c0 -15 5 -30 12 -45h-168c-6 15 -11 30 -11 46c0 21 4 45 10 72c9 41 12 61 12 76c0 60 -64 60 -98 60h-128l-54 -254
h-165zM306 564l-37 -174h151c93 0 128 49 128 94c0 51 -29 80 -103 80h-139z" />
    <glyph glyph-name="S" unicode="S" horiz-adv-x="665" 
d="M30 227h168c-3 -11 -4 -21 -4 -32c0 -20 5 -79 117 -79c127 0 140 61 140 89c0 63 -75 73 -160 95c-94 24 -196 52 -196 188c0 134 96 232 317 232c81 0 251 -12 251 -169c0 -14 -1 -29 -3 -43h-157c1 6 1 11 1 17c0 46 -49 59 -102 59c-37 0 -129 -7 -129 -75
c0 -43 34 -59 120 -79c172 -39 236 -81 236 -187c0 -144 -97 -263 -320 -263c-141 0 -284 37 -284 195c0 17 1 35 5 52z" />
    <glyph glyph-name="T" unicode="T" horiz-adv-x="608" 
d="M290 564h-211l29 136h587l-29 -136h-211l-119 -564h-165z" />
    <glyph glyph-name="U" unicode="U" horiz-adv-x="733" 
d="M158 700h165l-86 -408c-5 -24 -11 -47 -11 -76c0 -63 44 -100 117 -100c86 0 139 37 169 176l87 408h165l-92 -435c-27 -129 -81 -285 -337 -285c-229 0 -278 108 -278 215c0 33 8 64 15 97z" />
    <glyph glyph-name="V" unicode="V" horiz-adv-x="614" 
d="M305 200l231 500h188l-367 -700h-183l-88 700h172z" />
    <glyph glyph-name="W" unicode="W" horiz-adv-x="938" 
d="M531 517l-208 -517h-200l-37 700h168l11 -511l217 511h163l20 -511l203 511h180l-308 -700h-195z" />
    <glyph glyph-name="X" unicode="X" horiz-adv-x="685" 
d="M344 236l-190 -236h-208l325 364l-154 336h188l85 -221l171 221h201l-299 -340l169 -360h-196z" />
    <glyph glyph-name="Y" unicode="Y" horiz-adv-x="640" 
d="M358 410l208 290h184l-340 -436l-56 -264h-165l56 264l-159 436h180z" />
    <glyph glyph-name="Z" unicode="Z" horiz-adv-x="635" 
d="M436 564h-327l31 136h542l-27 -127l-442 -437h375l-30 -136h-585l31 146z" />
    <glyph glyph-name="bracketleft" unicode="[" horiz-adv-x="419" 
d="M200 700h264l-20 -92h-132l-149 -700h132l-19 -93h-264z" />
    <glyph glyph-name="backslash" unicode="\" horiz-adv-x="447" 
d="M354 -185h-80l-179 885h80z" />
    <glyph glyph-name="bracketright" unicode="]" horiz-adv-x="422" 
d="M224 -185h-265l19 93h132l149 700h-132l20 92h264z" />
    <glyph glyph-name="asciicircum" unicode="^" horiz-adv-x="460" 
d="M277 652l-100 -170h-100l130 218h140l130 -218h-100z" />
    <glyph glyph-name="underscore" unicode="_" horiz-adv-x="497" 
d="M0 -185v80h497v-80h-497z" />
    <glyph glyph-name="grave" unicode="`" horiz-adv-x="349" 
d="M274 700l41 -132h-110l-78 132h147z" />
    <glyph glyph-name="a" unicode="a" horiz-adv-x="608" 
d="M236 344h-159c47 182 225 183 287 183c169 0 204 -72 204 -134c0 -19 -5 -37 -9 -56l-51 -232c-3 -12 -9 -43 -9 -59c0 -27 10 -32 17 -33v-13h-159l-3 50h-3c-66 -64 -140 -69 -175 -69c-54 0 -159 12 -159 128c0 156 165 175 255 186c83 11 138 4 138 82
c0 23 -15 48 -64 48c-30 0 -93 -6 -110 -81zM382 210l8 32c-11 -6 -25 -12 -107 -27c-41 -7 -108 -24 -108 -89c0 -37 46 -43 69 -43c109 0 135 114 138 127z" />
    <glyph glyph-name="b" unicode="b" horiz-adv-x="638" 
d="M7 0l149 700h152l-50 -229c19 17 74 56 170 56c39 0 181 -20 181 -230c0 -194 -136 -316 -280 -316c-77 0 -121 21 -166 80h-3l-11 -61h-142zM203 261c-4 -19 -6 -39 -6 -59c0 -48 19 -119 98 -119c121 0 156 151 156 223c0 85 -38 119 -100 119
c-88 0 -133 -89 -148 -164z" />
    <glyph glyph-name="c" unicode="c" horiz-adv-x="596" 
d="M397 192h150c-14 -55 -70 -211 -276 -211c-169 0 -241 97 -241 217c0 130 73 329 312 329c188 0 229 -95 229 -169c0 -10 0 -21 -1 -31h-146c1 6 1 11 1 17c0 75 -50 81 -83 81c-112 0 -154 -131 -154 -225c0 -112 68 -117 99 -117c43 0 88 21 110 109z" />
    <glyph glyph-name="d" unicode="d" horiz-adv-x="636" 
d="M522 0h-136l11 47h-3c-49 -46 -105 -66 -169 -66c-116 0 -198 78 -198 215c0 155 98 331 281 331c66 0 123 -22 160 -70l52 243h152zM432 246c4 20 7 40 7 60c0 75 -36 119 -98 119c-106 0 -156 -125 -156 -223c0 -66 34 -119 100 -119c96 0 134 103 147 163z" />
    <glyph glyph-name="e" unicode="e" horiz-adv-x="628" 
d="M396 147h154c-29 -72 -99 -166 -277 -166c-212 0 -243 137 -243 221c0 116 72 325 322 325c207 0 243 -122 243 -209c0 -27 -10 -66 -19 -95h-388c-3 -14 -4 -27 -4 -41c0 -82 56 -99 102 -99c49 0 96 26 110 64zM205 302h232c1 5 4 29 4 44c0 82 -84 79 -99 79
c-39 0 -107 -14 -137 -123z" />
    <glyph glyph-name="f" unicode="f" horiz-adv-x="381" 
d="M426 508l-20 -102h-115l-87 -406h-152l87 406h-93l21 102h94l9 44c28 139 106 157 207 157c36 0 62 -3 90 -9l-20 -99c-14 3 -42 6 -61 6c-39 0 -58 -26 -65 -61l-8 -38h113z" />
    <glyph glyph-name="g" unicode="g" horiz-adv-x="637" 
d="M19 -40h148c2 -28 22 -55 90 -55c29 0 94 5 118 118l8 37h-3c-30 -29 -96 -48 -148 -48c-99 0 -196 55 -196 210c0 178 116 305 267 305c58 0 130 -10 169 -75h3l12 56h143l-98 -461c-52 -244 -227 -244 -291 -244c-79 0 -228 5 -222 157zM293 114c112 0 147 129 147 198
c0 76 -43 113 -99 113c-95 0 -147 -109 -147 -206c0 -65 39 -105 99 -105z" />
    <glyph glyph-name="h" unicode="h" horiz-adv-x="613" 
d="M309 700l-51 -237c19 19 75 64 175 64c36 0 142 -12 142 -136c0 -24 -4 -48 -9 -72l-68 -319h-152l63 294c3 16 6 31 6 47c0 69 -62 66 -74 66c-94 0 -116 -97 -121 -121l-61 -286h-152l150 700h152z" />
    <glyph glyph-name="i" unicode="i" horiz-adv-x="274" 
d="M115 508h152l-108 -508h-152zM130 581l26 119h152l-26 -119h-152z" />
    <glyph glyph-name="j" unicode="j" horiz-adv-x="274" 
d="M115 508h152l-113 -533c-32 -153 -128 -167 -189 -167c-35 0 -61 2 -88 7l21 102c5 -1 10 -2 15 -2c56 0 80 18 92 75zM130 581l26 119h152l-26 -119h-152z" />
    <glyph glyph-name="k" unicode="k" horiz-adv-x="563" 
d="M225 307l205 201h181l-236 -220l146 -288h-168l-94 209l-67 -58l-33 -151h-152l150 700h152z" />
    <glyph glyph-name="l" unicode="l" horiz-adv-x="273" 
d="M157 700h152l-150 -700h-152z" />
    <glyph glyph-name="m" unicode="m" horiz-adv-x="918" 
d="M115 508h135l-16 -74c78 89 158 93 180 93c83 0 123 -42 129 -92c81 80 144 92 197 92c83 0 137 -49 137 -135c0 -28 -4 -55 -10 -83l-66 -309h-152l64 299c3 16 6 31 6 47c0 38 -11 79 -59 79c-89 0 -110 -102 -117 -133l-63 -292h-152l64 299c10 46 17 126 -50 126
c-32 0 -95 -18 -120 -133l-63 -292h-152z" />
    <glyph glyph-name="n" unicode="n" horiz-adv-x="614" 
d="M254 508l-11 -55h2c69 75 159 74 188 74c100 0 143 -63 143 -136c0 -24 -5 -47 -10 -72l-67 -319h-152l62 294c3 16 7 31 7 47c0 26 -5 84 -74 84c-30 0 -94 -10 -122 -139l-61 -286h-152l108 508h139z" />
    <glyph glyph-name="o" unicode="o" horiz-adv-x="631" 
d="M276 -19c-213 0 -247 134 -247 227c0 122 76 319 324 319c96 0 248 -28 248 -228c0 -160 -113 -318 -325 -318zM292 83c99 0 151 106 151 226c0 28 -1 116 -105 116c-115 0 -151 -135 -151 -229c0 -38 9 -113 105 -113z" />
    <glyph glyph-name="p" unicode="p" horiz-adv-x="637" 
d="M117 508h134l-12 -52h3c67 65 140 71 179 71c132 0 187 -95 187 -202c0 -138 -84 -342 -286 -342c-34 0 -115 8 -151 69l-51 -237h-152zM205 262c-4 -19 -7 -39 -7 -59c0 -64 27 -118 97 -118c110 0 155 133 155 222c0 99 -58 118 -98 118c-44 0 -119 -25 -147 -163z" />
    <glyph glyph-name="q" unicode="q" horiz-adv-x="637" 
d="M630 508l-147 -693h-152l47 223c-39 -39 -89 -57 -151 -57c-126 0 -200 86 -200 219c0 147 96 327 281 327c72 0 128 -25 166 -80h1l13 61h142zM285 83c117 0 155 153 155 229c0 89 -54 113 -98 113c-72 0 -157 -67 -157 -222c0 -71 29 -120 100 -120z" />
    <glyph glyph-name="r" unicode="r" horiz-adv-x="421" 
d="M466 517l-25 -121c-13 3 -27 4 -40 4c-54 0 -149 -21 -185 -142c-5 -16 -8 -33 -12 -50l-45 -208h-152l107 508h146l-15 -72c30 36 89 83 193 83c9 0 19 -1 28 -2z" />
    <glyph glyph-name="s" unicode="s" horiz-adv-x="556" 
d="M10 160h156c-1 -6 -1 -12 -1 -18c0 -27 15 -59 93 -59c42 0 90 22 90 62c0 41 -36 51 -81 61c-104 24 -203 30 -203 137c0 86 66 184 258 184c151 0 209 -54 209 -130c0 -10 -1 -19 -3 -29h-137c1 6 1 13 1 19c0 16 -7 38 -75 38c-75 0 -95 -29 -95 -55
c0 -41 36 -48 67 -54c123 -22 217 -25 217 -129c0 -47 -14 -206 -267 -206c-113 0 -231 29 -231 143c0 12 0 24 2 36z" />
    <glyph glyph-name="t" unicode="t" horiz-adv-x="383" 
d="M45 406l22 102h91l32 152h152l-32 -152h109l-22 -102h-109l-52 -244c-3 -12 -5 -23 -5 -34c0 -23 17 -36 53 -36c12 0 36 6 48 10l-22 -102c-36 -8 -84 -14 -114 -14c-107 0 -124 50 -124 95c0 18 2 35 6 53l58 272h-91z" />
    <glyph glyph-name="u" unicode="u" horiz-adv-x="609" 
d="M355 0l12 56h-3c-50 -52 -110 -75 -187 -75c-131 0 -141 106 -141 136c0 24 1 48 6 73l68 318h152l-62 -294c-3 -16 -7 -31 -7 -46c0 -36 13 -85 75 -85c93 0 112 98 121 140l61 285h152l-109 -508h-138z" />
    <glyph glyph-name="v" unicode="v" horiz-adv-x="498" 
d="M238 165l170 343h157l-288 -508h-147l-85 508h162z" />
    <glyph glyph-name="w" unicode="w" horiz-adv-x="784" 
d="M411 328l-141 -328h-167l-58 508h155l24 -331l139 331h159l13 -331l147 331h169l-260 -508h-166z" />
    <glyph glyph-name="x" unicode="x" horiz-adv-x="541" 
d="M292 363l114 145h183l-233 -251l126 -257h-161l-68 153l-125 -153h-182l246 270l-125 238h166z" />
    <glyph glyph-name="y" unicode="y" horiz-adv-x="555" 
d="M2 -185l22 102c11 -5 27 -7 48 -7c52 0 69 36 88 71l14 25l-116 502h163l67 -344l163 344h161l-290 -535c-64 -117 -112 -167 -215 -167c-38 0 -77 3 -105 9z" />
    <glyph glyph-name="z" unicode="z" horiz-adv-x="512" 
d="M80 406l22 102h425l-23 -109l-320 -297h271l-23 -102h-459l22 107l327 299h-242z" />
    <glyph glyph-name="braceleft" unicode="{" horiz-adv-x="503" 
d="M131 249l19 93c95 2 116 119 126 183c14 96 50 221 225 214l-15 -73c-80 -20 -88 -73 -98 -146c-11 -83 -30 -177 -159 -221l-1 -7c47 -23 84 -50 84 -104c0 -24 -2 -57 -19 -117c-11 -39 -17 -69 -17 -93c0 -25 23 -46 53 -53l-15 -73c-61 -3 -152 11 -152 105
c0 42 7 73 17 109s18 72 18 105c0 64 -44 76 -66 78z" />
    <glyph glyph-name="bar" unicode="|" horiz-adv-x="469" 
d="M189 -224v1053h80v-1053h-80z" />
    <glyph glyph-name="braceright" unicode="}" horiz-adv-x="505" 
d="M383 342l-19 -93c-91 -10 -114 -98 -127 -183c-13 -83 -39 -223 -224 -214l15 73c85 16 91 96 98 146c12 90 30 171 159 221l1 7c-47 21 -84 51 -84 104c0 36 10 86 19 117c10 34 16 62 16 92c0 29 -20 45 -52 54l15 73c36 2 153 0 153 -105c0 -42 -9 -72 -19 -109
c-5 -18 -18 -75 -18 -106c0 -45 28 -76 67 -77z" />
    <glyph glyph-name="asciitilde" unicode="~" horiz-adv-x="664" 
d="M139 268l-69 36c22 57 74 148 163 148c36 0 67 -12 87 -23l103 -55c15 -8 30 -13 52 -13c42 0 68 36 86 81l69 -36c-22 -57 -74 -148 -163 -148c-36 0 -67 12 -87 23l-103 55c-15 8 -32 13 -53 13c-47 0 -74 -46 -85 -81z" />
    <glyph glyph-name="afii10051" unicode="&#x402;" horiz-adv-x="917" 
d="M483 279l-59 -279h-165l119 564h-211l29 136h587l-29 -136h-211l-31 -149c44 4 114 8 158 8c60 0 214 -8 214 -182c0 -153 -116 -261 -280 -261c-38 0 -68 8 -89 15l26 124c16 -5 30 -7 45 -7c87 0 120 49 120 94c0 77 -69 81 -110 81c-39 0 -78 -3 -113 -8z" />
    <glyph glyph-name="afii10052" unicode="&#x403;" horiz-adv-x="551" 
d="M304 564l-119 -564h-165l148 700h470l-30 -136h-304zM362 898h158l-126 -132h-116z" />
    <glyph glyph-name="quotesinglbase" unicode="&#x201a;" horiz-adv-x="385" 
d="M52 0l34 158h165l-34 -158c-9 -43 -43 -175 -203 -177l17 79c83 5 103 71 106 92l1 6h-86z" />
    <glyph glyph-name="afii10100" unicode="&#x453;" horiz-adv-x="462" 
d="M246 406l-87 -406h-152l109 508h389l-23 -102h-236zM307 700h160l-128 -132h-116z" />
    <glyph glyph-name="quotedblbase" unicode="&#x201e;" horiz-adv-x="562" 
d="M25 0l34 158h166l-34 -158c-10 -45 -45 -174 -203 -177l17 79c49 2 95 34 105 92l1 6h-86zM257 0l34 158h165l-34 -158c-29 -135 -117 -175 -203 -177l17 79c67 3 106 58 106 92v6h-85z" />
    <glyph glyph-name="ellipsis" unicode="&#x2026;" horiz-adv-x="1139" 
d="M52 0l33 158h166l-33 -158h-166zM429 0l33 158h166l-33 -158h-166zM806 0l33 158h166l-33 -158h-166z" />
    <glyph glyph-name="dagger" unicode="&#x2020;" horiz-adv-x="565" 
d="M299 700h159l-41 -192h178l-28 -132h-178l-120 -561h-159l120 561h-178l28 132h178z" />
    <glyph glyph-name="daggerdbl" unicode="&#x2021;" horiz-adv-x="634" 
d="M368 700h159l-41 -192h178l-28 -132h-178l-41 -192h178l-28 -132h-178l-51 -237h-159l51 237h-178l28 132h178l41 192h-178l28 132h178z" />
    <glyph glyph-name="accent" horiz-adv-x="2" 
d="M-248 700h160l-128 -132h-116z" />
    <glyph glyph-name="perthousand" unicode="&#x2030;" horiz-adv-x="1463" 
d="M169 0l603 700h105l-602 -700h-106zM108 529c34 178 192 184 213 184c62 0 161 -28 161 -161c0 -93 -59 -239 -220 -239c-62 0 -160 27 -160 163c0 18 3 35 6 53zM213 508c-2 -11 -4 -23 -4 -35c0 -46 18 -81 57 -81c65 0 109 96 109 167c0 54 -27 75 -58 75
c-25 0 -82 -16 -104 -126zM575 203c32 147 140 184 212 184c62 0 161 -27 161 -162c0 -167 -126 -238 -220 -238c-59 0 -160 27 -160 163c0 18 3 36 7 53zM678 181c-2 -12 -3 -23 -3 -35c0 -54 23 -80 56 -80c65 0 110 95 110 167c0 54 -27 75 -58 75
c-41 0 -92 -43 -105 -127zM1025 203c32 147 140 184 212 184c62 0 161 -27 161 -162c0 -167 -126 -238 -220 -238c-59 0 -160 27 -160 163c0 18 3 36 7 53zM1128 181c-2 -12 -3 -23 -3 -35c0 -54 23 -80 56 -80c65 0 110 95 110 167c0 54 -27 75 -58 75
c-41 0 -92 -43 -105 -127z" />
    <glyph glyph-name="afii10058" unicode="&#x409;" horiz-adv-x="1201" 
d="M13 0l29 136c9 -1 19 -2 28 -2c63 0 132 10 183 232l76 334h518l-54 -254h175c186 0 204 -103 204 -174c0 -250 -224 -272 -299 -272h-339l119 564h-197l-56 -244c-30 -133 -91 -324 -335 -324c-17 0 -35 2 -52 4zM765 310l-37 -174h141c122 0 125 88 125 114
c0 49 -36 60 -93 60h-136z" />
    <glyph glyph-name="guilsinglleft" unicode="&#x2039;" horiz-adv-x="279" 
d="M75 338l179 137l-31 -145l-98 -76l67 -69l-26 -125l-122 136z" />
    <glyph glyph-name="afii10059" unicode="&#x40a;" horiz-adv-x="1123" 
d="M251 310l-66 -310h-165l148 700h165l-54 -254h255l54 254h165l-54 -254h144c106 0 240 -24 240 -202c0 -125 -96 -244 -311 -244h-332l66 310h-255zM671 310l-37 -174h157c45 0 117 24 117 90c0 60 -35 84 -103 84h-134z" />
    <glyph glyph-name="afii10061" unicode="&#x40c;" horiz-adv-x="671" 
d="M271 402l286 298h200l-338 -336l208 -364h-192l-177 346h-2l-71 -346h-165l148 700h165l-65 -298h3zM422 898h158l-126 -132h-116z" />
    <glyph glyph-name="afii10060" unicode="&#x40b;" horiz-adv-x="906" 
d="M827 0h-165l36 169c4 17 6 35 6 54c0 50 -33 64 -103 64c-9 0 -57 0 -117 -8l-59 -279h-165l119 564h-212l29 136h588l-29 -136h-211l-31 -149c76 7 136 8 158 8c56 0 209 -1 209 -142c0 -22 -3 -44 -8 -67z" />
    <glyph glyph-name="afii10145" unicode="&#x40f;" horiz-adv-x="749" 
d="M534 136l119 564h165l-148 -700h-225l-48 -226h-145l48 226h-225l148 700h165l-119 -564h265z" />
    <glyph glyph-name="afii10099" unicode="&#x452;" horiz-adv-x="640" 
d="M326 700l-13 -59h238l-16 -80h-238l-27 -128c75 70 144 74 172 74c36 0 148 -2 148 -154c0 -99 -38 -300 -99 -401c-66 -109 -148 -136 -256 -137l21 102h17c118 0 155 307 155 374c0 98 -54 101 -73 101c-84 0 -110 -72 -125 -144l-53 -248h-152l120 561h-79l16 80h79
l13 59h152z" />
    <glyph glyph-name="quoteleft" unicode="&#x2018;" horiz-adv-x="376" 
d="M335 542l-33 -158h-166l33 158c12 60 49 169 203 178l-17 -79c-55 -2 -95 -38 -106 -94l-1 -5h87z" />
    <glyph glyph-name="quoteright" unicode="&#x2019;" horiz-adv-x="377" 
d="M167 542l34 158h165l-34 -158c-12 -55 -42 -168 -203 -178l17 79c63 3 98 48 106 93l1 6h-86z" />
    <glyph glyph-name="quotedblleft" unicode="&#x201c;" horiz-adv-x="553" 
d="M540 542l-34 -158h-165l34 158c7 32 31 167 202 178l-17 -79c-52 -2 -93 -35 -105 -94l-1 -5h86zM308 542l-33 -158h-166l34 158c13 61 51 169 203 178l-17 -79c-52 -2 -93 -35 -105 -94l-1 -5h85z" />
    <glyph glyph-name="quotedblright" unicode="&#x201d;" horiz-adv-x="554" 
d="M141 542l33 158h166l-33 -158c-23 -109 -85 -170 -204 -178l17 79c49 2 95 36 105 93l1 6h-85zM372 542l33 158h166l-33 -158c-26 -122 -98 -171 -204 -178l17 79c63 3 98 48 106 93l1 6h-86z" />
    <glyph glyph-name="bullet" unicode="&#x2022;" 
d="M175 350c0 100 80 180 180 180s180 -80 180 -180s-80 -180 -180 -180s-180 80 -180 180z" />
    <glyph glyph-name="endash" unicode="&#x2013;" horiz-adv-x="673" 
d="M64 310h566l-18 -85h-566z" />
    <glyph glyph-name="emdash" unicode="&#x2014;" horiz-adv-x="900" 
d="M46 225l18 85h793l-18 -85h-793z" />
    <glyph glyph-name="Accent" horiz-adv-x="2" 
d="M-276 898h158l-126 -132h-116z" />
    <glyph glyph-name="trademark" unicode="&#x2122;" horiz-adv-x="941" 
d="M194 618h-109v82h334v-82h-110v-268h-115v268zM684 350l-80 238h-8l8 -46v-192h-112v350h151l70 -214l5 -37h6l4 37l71 214h150v-350h-110v192l6 46h-6l-81 -238h-74z" />
    <glyph glyph-name="afii10106" unicode="&#x459;" horiz-adv-x="911" 
d="M-42 -2l22 105c8 -1 16 -2 24 -2c60 0 96 31 133 190l50 217h433l-40 -181h96c66 0 188 -5 188 -136c0 -83 -52 -191 -222 -191h-282l86 406h-136l-25 -114c-59 -270 -143 -300 -257 -300c-23 0 -47 2 -70 6zM559 225l-27 -123h69c55 0 105 14 105 66c0 54 -57 57 -81 57
h-66z" />
    <glyph glyph-name="guilsinglright" unicode="&#x203a;" horiz-adv-x="279" 
d="M208 196l-179 -137l30 145l99 72l-67 71l26 127l121 -136z" />
    <glyph glyph-name="afii10107" unicode="&#x45a;" horiz-adv-x="893" 
d="M206 220l-47 -220h-152l108 508h152l-40 -186h183l40 186h152l-40 -180h96c70 0 188 -3 188 -137c0 -83 -50 -191 -222 -191h-282l47 220h-183zM542 226l-28 -124h68c57 0 105 14 105 66c0 59 -70 58 -81 58h-64z" />
    <glyph glyph-name="afii10109" unicode="&#x45c;" horiz-adv-x="537" 
d="M222 300l197 208h174l-253 -249l156 -259h-171l-118 225h-3l-45 -225h-152l109 508h152l-48 -208h2zM345 700h160l-128 -132h-116z" />
    <glyph glyph-name="afii10108" unicode="&#x45b;" horiz-adv-x="631" 
d="M326 700l-13 -59h238l-16 -80h-238l-25 -118c45 45 104 64 169 64c24 0 148 -4 148 -136c0 -24 -4 -48 -9 -72l-63 -299h-152l54 256c4 18 8 36 8 54c0 75 -50 77 -73 77c-73 0 -105 -51 -124 -139l-53 -248h-152l120 561h-92l16 80h92l13 59h152z" />
    <glyph glyph-name="afii10193" unicode="&#x45f;" horiz-adv-x="621" 
d="M375 102l87 406h152l-107 -508h-184l-40 -185h-132l40 185h-184l108 508h152l-87 -406h195z" />
    <glyph glyph-name="afii10062" unicode="&#x40e;" horiz-adv-x="639" 
d="M371 353l197 347h181l-346 -557c-40 -65 -103 -156 -250 -156c-36 0 -67 4 -103 13l28 136c22 -6 50 -11 74 -11c52 0 80 21 106 68l-159 507h179zM259 904h112c-7 -26 2 -67 78 -67c60 0 87 31 94 67h112c-19 -61 -76 -138 -221 -138c-71 0 -176 17 -176 117
c0 7 0 14 1 21z" />
    <glyph glyph-name="afii10110" unicode="&#x45e;" horiz-adv-x="555" 
d="M2 -185l22 102c11 -5 27 -7 48 -7c52 0 69 36 88 71l14 25l-116 502h163l67 -344l163 344h161l-290 -535c-64 -117 -112 -167 -215 -167c-38 0 -77 3 -105 9zM174 700h111c-5 -26 4 -67 79 -67c69 0 89 40 94 67h112c-16 -51 -66 -138 -221 -138c-69 0 -176 17 -176 117
c0 7 0 14 1 21z" />
    <glyph glyph-name="afii10057" unicode="&#x408;" horiz-adv-x="577" 
d="M22 258h165l-6 -28c-3 -13 -6 -26 -6 -39c0 -45 18 -75 67 -75c69 0 85 40 101 114l100 470h165l-95 -447c-27 -128 -63 -273 -285 -273c-173 0 -215 95 -215 184c0 28 6 74 9 94z" />
    <glyph glyph-name="currency" unicode="&#xa4;" horiz-adv-x="830" 
d="M427 41c-95 0 -151 41 -170 57l-111 -111l-66 66l111 111c-38 54 -53 114 -53 166c0 53 14 113 53 166l-111 112l66 66l111 -112c19 16 75 57 170 57s151 -41 170 -57l111 112l66 -66l-111 -112c39 -53 53 -113 53 -166c0 -52 -15 -112 -53 -166l111 -111l-66 -66
l-111 111c-19 -16 -75 -57 -170 -57zM427 544c-117 0 -214 -97 -214 -214c0 -116 96 -214 214 -214s214 98 214 214c0 117 -97 214 -214 214z" />
    <glyph glyph-name="afii10050" unicode="&#x490;" horiz-adv-x="550" 
d="M305 564l-120 -564h-165l149 700h315l33 158h145l-54 -294h-303z" />
    <glyph glyph-name="brokenbar" unicode="&#xa6;" horiz-adv-x="469" 
d="M189 176h80v-400h-80v400zM269 429h-80v400h80v-400z" />
    <glyph glyph-name="section" unicode="&#xa7;" horiz-adv-x="620" 
d="M563 530h-123c2 8 3 15 3 23c0 48 -42 54 -67 54c-50 0 -76 -38 -76 -72c0 -41 47 -52 108 -71c68 -22 164 -51 164 -160c0 -102 -65 -163 -130 -190c27 -29 34 -54 34 -90c0 -45 -18 -199 -228 -199c-80 0 -200 17 -200 142c0 22 1 40 5 59h125c-2 -9 -3 -17 -3 -26
c0 -18 6 -60 83 -60c53 0 73 34 73 71c0 33 -19 46 -84 67c-114 38 -193 63 -193 177c0 52 18 139 133 182c-26 28 -30 61 -30 88c0 95 70 188 218 188c161 0 192 -76 192 -138c0 -5 -1 -14 -4 -45zM257 215l112 -35c75 18 77 74 77 88c0 46 -40 58 -74 69l-113 37
c-43 -16 -75 -34 -75 -84c0 -42 31 -62 73 -75z" />
    <glyph glyph-name="afii10023" unicode="&#x401;" horiz-adv-x="655" 
d="M275 425h342l-29 -136h-342l-32 -153h397l-29 -136h-562l148 700h554l-29 -136h-389zM269 766l23 106h142l-23 -106h-142zM517 766l23 106h142l-23 -106h-142z" />
    <glyph glyph-name="copyright" unicode="&#xa9;" horiz-adv-x="809" 
d="M73 350c0 192 154 350 350 350c190 0 350 -157 350 -350s-160 -350 -350 -350c-196 0 -350 158 -350 350zM158 350c0 -156 118 -278 265 -278c146 0 265 122 265 278s-119 278 -265 278c-147 0 -265 -122 -265 -278zM551 297c-33 -116 -118 -125 -158 -125
c-85 0 -144 45 -144 127c0 110 57 240 192 240c42 0 131 -12 131 -96c0 -6 -1 -13 -2 -19h-79c1 3 1 6 1 9c0 23 -18 40 -51 40c-60 0 -103 -80 -103 -161c0 -62 38 -74 65 -74c18 0 48 6 67 59h81z" />
    <glyph glyph-name="afii10053" unicode="&#x404;" horiz-adv-x="747" 
d="M555 425l-28 -136h-297c-1 -7 -3 -14 -3 -21c0 -94 54 -152 145 -152c65 0 142 37 160 98h169c-32 -96 -125 -234 -352 -234c-210 0 -300 127 -300 285c0 157 82 455 412 455c261 0 292 -135 292 -207v-27h-165c0 51 -34 98 -132 98c-96 0 -182 -65 -201 -159h300z" />
    <glyph glyph-name="guillemotleft" unicode="&#xab;" horiz-adv-x="470" 
d="M75 338l179 137l-30 -145l-99 -75l67 -70l-26 -125l-122 136zM266 338l179 137l-30 -145l-99 -75l68 -70l-26 -125l-122 136z" />
    <glyph glyph-name="logicalnot" unicode="&#xac;" 
d="M73 390h566v-224h-85v144h-481v80z" />
    <glyph glyph-name="hyphen" unicode="-" horiz-adv-x="450" 
d="M69 205l26 125h288l-26 -125h-288z" />
    <glyph glyph-name="hyphen" unicode="&#xad;" horiz-adv-x="450" 
d="M69 205l26 125h288l-26 -125h-288z" />
    <glyph glyph-name="registered" unicode="&#xae;" horiz-adv-x="809" 
d="M73 350c0 192 154 350 350 350c190 0 350 -157 350 -350s-160 -350 -350 -350c-196 0 -350 158 -350 350zM157 350c0 -156 117 -278 266 -278c146 0 265 122 265 278c0 157 -118 278 -265 278c-149 0 -266 -122 -266 -278zM262 178l75 350h142c44 0 110 -10 110 -81
c0 -42 -30 -88 -80 -100l-1 -1c28 -8 37 -25 37 -51c0 -16 -4 -30 -7 -45c-7 -32 -7 -45 -7 -54c0 -6 3 -12 7 -18h-86c-2 7 -4 14 -4 21c0 15 4 32 7 55c1 8 2 16 2 25c0 23 -7 37 -66 37h-17l-29 -138h-83zM407 467l-19 -90h56c36 0 57 28 57 52c0 35 -38 38 -58 38h-36z
" />
    <glyph glyph-name="afii10056" unicode="&#x407;" horiz-adv-x="352" 
d="M191 700h165l-149 -700h-165zM138 766l22 106h122l-22 -106h-122zM315 766l22 106h122l-22 -106h-122z" />
    <glyph glyph-name="degree" unicode="&#xb0;" horiz-adv-x="295" 
d="M111 605c0 62 50 112 112 112s112 -50 112 -112s-50 -112 -112 -112s-112 50 -112 112zM169 605c0 -30 24 -54 54 -54s54 24 54 54s-24 54 -54 54s-54 -24 -54 -54z" />
    <glyph glyph-name="plusminus" unicode="&#xb1;" 
d="M73 450h243v220h80v-220h243v-80h-243v-180h-80v180h-243v80zM73 140h566v-80h-566v80z" />
    <glyph glyph-name="afii10055" unicode="&#x406;" horiz-adv-x="311" 
d="M168 700h165l-148 -700h-165z" />
    <glyph glyph-name="afii10103" unicode="&#x456;" horiz-adv-x="274" 
d="M115 508h152l-108 -508h-152zM130 581l26 119h152l-26 -119h-152z" />
    <glyph glyph-name="afii10098" unicode="&#x491;" horiz-adv-x="458" 
d="M245 406l-86 -406h-152l108 508h269l28 133h111l-43 -235h-235z" />
    <glyph glyph-name="mu" unicode="&#xb5;" horiz-adv-x="619" 
d="M-28 -185l148 693h152l-58 -266c-5 -21 -6 -44 -6 -71c0 -84 55 -88 71 -88c83 0 112 105 124 159l57 266h152l-108 -508h-152l16 75c-20 -52 -73 -94 -114 -94c-34 0 -77 30 -75 94l-55 -260h-152z" />
    <glyph glyph-name="mu" unicode="&#x3bc;" horiz-adv-x="619" 
d="M-28 -185l148 693h152l-58 -266c-5 -21 -6 -44 -6 -71c0 -84 55 -88 71 -88c83 0 112 105 124 159l57 266h152l-108 -508h-152l16 75c-20 -52 -73 -94 -114 -94c-34 0 -77 30 -75 94l-55 -260h-152z" />
    <glyph glyph-name="paragraph" unicode="&#xb6;" horiz-adv-x="533" 
d="M226 -185v555c-111 3 -166 91 -166 165c0 92 75 165 166 165h80v-885h-80zM386 -185v885h80v-885h-80z" />
    <glyph glyph-name="periodcentered" unicode="&#xb7;" horiz-adv-x="250" 
d="M26 189l33 158h165l-33 -158h-165z" />
    <glyph glyph-name="periodcentered" unicode="&#x2219;" horiz-adv-x="250" 
d="M26 189l33 158h165l-33 -158h-165z" />
    <glyph glyph-name="afii10071" unicode="&#x451;" horiz-adv-x="628" 
d="M396 147h154c-29 -72 -99 -166 -277 -166c-212 0 -243 137 -243 221c0 116 72 325 322 325c207 0 243 -122 243 -209c0 -27 -10 -66 -19 -95h-388c-3 -14 -4 -27 -4 -41c0 -82 56 -99 102 -99c49 0 96 26 110 64zM205 302h232c1 5 4 29 4 44c0 82 -84 79 -99 79
c-39 0 -107 -14 -137 -123zM166 581l26 119h152l-26 -119h-152zM448 581l26 119h152l-26 -119h-152z" />
    <glyph glyph-name="afii61352" unicode="&#x2116;" horiz-adv-x="1173" 
d="M725 126l25 119h351l-26 -119h-350zM281 442h-2l-94 -442h-165l148 700h162l190 -440h3l93 440h165l-148 -700h-162zM790 516c15 70 71 184 214 184c105 0 160 -65 160 -163c0 -113 -71 -237 -219 -237c-157 0 -161 133 -161 162c0 18 2 36 6 54zM908 491
c-3 -13 -4 -27 -4 -40c0 -53 25 -59 44 -59c65 0 96 95 96 153c0 59 -31 61 -41 61c-58 0 -87 -79 -95 -115z" />
    <glyph glyph-name="afii10101" unicode="&#x454;" horiz-adv-x="597" 
d="M400 310l-20 -102h-195c-1 -5 -2 -11 -2 -16c0 -41 15 -109 96 -109c58 0 99 34 117 78h143c-72 -161 -174 -180 -267 -180c-49 0 -245 -3 -245 214c0 144 80 332 323 332c92 0 224 -25 224 -177h-141c1 36 -20 75 -93 75c-8 0 -111 -2 -140 -115h200z" />
    <glyph glyph-name="guillemotright" unicode="&#xbb;" horiz-adv-x="470" 
d="M208 196l-180 -137l30 145l100 72l-68 71l26 127l122 -136zM399 196l-179 -137l30 145l99 72l-68 71l27 127l121 -136z" />
    <glyph glyph-name="afii10105" unicode="&#x458;" horiz-adv-x="274" 
d="M115 508h152l-113 -533c-32 -153 -128 -167 -189 -167c-35 0 -61 2 -88 7l21 102c5 -1 10 -2 15 -2c56 0 80 18 92 75zM130 581l26 119h152l-26 -119h-152z" />
    <glyph glyph-name="afii10054" unicode="&#x405;" horiz-adv-x="665" 
d="M30 227h168c-3 -11 -4 -21 -4 -32c0 -20 5 -79 117 -79c127 0 140 61 140 89c0 63 -75 73 -160 95c-94 24 -196 52 -196 188c0 134 96 232 317 232c81 0 251 -12 251 -169c0 -14 -1 -29 -3 -43h-157c1 6 1 11 1 17c0 46 -49 59 -102 59c-37 0 -129 -7 -129 -75
c0 -43 34 -59 120 -79c172 -39 236 -81 236 -187c0 -144 -97 -263 -320 -263c-141 0 -284 37 -284 195c0 17 1 35 5 52z" />
    <glyph glyph-name="afii10102" unicode="&#x455;" horiz-adv-x="556" 
d="M10 160h156c-1 -6 -1 -12 -1 -18c0 -27 15 -59 93 -59c42 0 90 22 90 62c0 41 -36 51 -81 61c-104 24 -203 30 -203 137c0 86 66 184 258 184c151 0 209 -54 209 -130c0 -10 -1 -19 -3 -29h-137c1 6 1 13 1 19c0 16 -7 38 -75 38c-75 0 -95 -29 -95 -55
c0 -41 36 -48 67 -54c123 -22 217 -25 217 -129c0 -47 -14 -206 -267 -206c-113 0 -231 29 -231 143c0 12 0 24 2 36z" />
    <glyph glyph-name="afii10104" unicode="&#x457;" horiz-adv-x="360" 
d="M160 508h152l-108 -508h-152zM98 581l25 119h122l-25 -119h-122zM283 581l25 119h122l-25 -119h-122z" />
    <glyph glyph-name="afii10017" unicode="&#x410;" horiz-adv-x="677" 
d="M348 700h167l114 -700h-171l-17 131h-254l-73 -131h-177zM247 250h183l-35 267z" />
    <glyph glyph-name="afii10018" unicode="&#x411;" horiz-adv-x="707" 
d="M304 564l-25 -121h168c47 0 220 5 220 -205c0 -123 -99 -238 -312 -238h-335l148 700h545l-29 -136h-380zM250 307l-36 -171h160c92 0 118 63 118 90c0 80 -76 81 -104 81h-138z" />
    <glyph glyph-name="afii10019" unicode="&#x412;" horiz-adv-x="728" 
d="M168 700h352c153 0 186 -77 186 -148c0 -62 -34 -156 -153 -182l-1 -2c58 -14 116 -52 116 -145c0 -129 -100 -223 -314 -223h-334zM304 564l-29 -136h152c33 0 99 14 99 77c0 36 -29 59 -74 59h-148zM247 292l-33 -156h170c43 0 109 18 109 83c0 60 -38 73 -95 73h-151z
" />
    <glyph glyph-name="afii10020" unicode="&#x413;" horiz-adv-x="551" 
d="M304 564l-119 -564h-165l148 700h470l-30 -136h-304z" />
    <glyph glyph-name="afii10021" unicode="&#x414;" horiz-adv-x="793" 
d="M656 136h99l-70 -294h-145l33 158h-474l-34 -158h-145l55 294h68c56 60 143 178 189 402l33 162h510zM581 564h-188l-16 -83c-18 -96 -61 -236 -154 -345h268z" />
    <glyph glyph-name="afii10022" unicode="&#x415;" horiz-adv-x="655" 
d="M275 425h342l-27 -136h-344l-32 -153h397l-28 -136h-563l148 700h554l-28 -136h-390z" />
    <glyph glyph-name="afii10024" unicode="&#x416;" horiz-adv-x="980" 
d="M357 0l70 321h-2l-276 -321h-212l347 381l-190 319h194l156 -289h2l59 289h165l-63 -289h2l266 289h206l-328 -339l189 -361h-200l-152 321h-3l-65 -321h-165z" />
    <glyph glyph-name="afii10025" unicode="&#x417;" horiz-adv-x="725" 
d="M31 241h161c-2 -7 -3 -13 -3 -20c0 -93 83 -105 147 -105c114 0 158 53 158 107c0 66 -64 70 -104 70h-99l27 129h82c105 0 126 51 126 90c0 59 -65 72 -118 72c-113 0 -144 -68 -153 -111h-167c29 133 121 247 357 247c197 0 259 -85 259 -176c0 -96 -64 -163 -155 -182
v-2c45 -9 123 -40 123 -141c0 -67 -38 -239 -349 -239c-148 0 -279 32 -296 166c-3 20 -2 41 0 61c1 11 2 23 4 34z" />
    <glyph glyph-name="afii10026" unicode="&#x418;" horiz-adv-x="755" 
d="M238 248l361 452h178l-148 -700h-165l96 457l-362 -457h-178l148 700h165z" />
    <glyph glyph-name="afii10027" unicode="&#x419;" horiz-adv-x="755" 
d="M238 248l361 452h178l-148 -700h-165l96 457l-362 -457h-178l148 700h165zM301 872h111c-9 -30 6 -67 80 -67c61 0 86 36 94 67h111c-19 -61 -75 -138 -221 -138c-176 0 -180 100 -175 138z" />
    <glyph glyph-name="afii10028" unicode="&#x41a;" horiz-adv-x="671" 
d="M271 402l286 298h200l-338 -336l208 -364h-192l-177 346h-2l-71 -346h-165l148 700h165l-65 -298h3z" />
    <glyph glyph-name="afii10029" unicode="&#x41b;" horiz-adv-x="771" 
d="M-41 0l30 136c9 -1 19 -2 28 -2c66 0 141 23 184 232l69 334h523l-148 -700h-165l119 564h-200l-53 -244c-28 -128 -95 -324 -338 -324c-16 0 -33 2 -49 4z" />
    <glyph glyph-name="afii10030" unicode="&#x41c;" horiz-adv-x="944" 
d="M357 0l-64 508h-2l-106 -508h-165l148 700h239l61 -481l252 481h246l-148 -700h-165l110 508h-3l-268 -508h-135z" />
    <glyph glyph-name="afii10031" unicode="&#x41d;" horiz-adv-x="732" 
d="M248 301l-63 -301h-165l148 700h165l-57 -263h256l57 263h165l-148 -700h-165l63 301h-256z" />
    <glyph glyph-name="afii10032" unicode="&#x41e;" horiz-adv-x="792" 
d="M364 -20c-279 0 -312 203 -312 289c0 173 109 451 422 451c194 0 307 -107 307 -289c0 -174 -105 -451 -417 -451zM377 116c172 0 226 186 226 292c0 77 -20 176 -148 176c-172 0 -225 -184 -225 -292c0 -99 38 -176 147 -176z" />
    <glyph glyph-name="afii10033" unicode="&#x41f;" horiz-adv-x="740" 
d="M304 564l-119 -564h-165l148 700h594l-148 -700h-165l119 564h-264z" />
    <glyph glyph-name="afii10034" unicode="&#x420;" horiz-adv-x="685" 
d="M168 700h327c80 0 217 -20 217 -191c0 -72 -30 -269 -319 -269h-157l-51 -240h-165zM304 564l-40 -188h130c114 0 143 54 143 103c0 65 -39 85 -103 85h-130z" />
    <glyph glyph-name="afii10035" unicode="&#x421;" horiz-adv-x="729" 
d="M538 247h164c-28 -107 -123 -267 -356 -267c-206 0 -294 127 -294 285c0 157 80 455 406 455c112 0 285 -26 285 -207c0 -17 0 -34 -3 -51h-163c1 7 1 14 1 21c0 70 -51 101 -127 101c-165 0 -221 -186 -221 -294c0 -166 103 -174 133 -174c41 0 127 5 175 131z" />
    <glyph glyph-name="afii10036" unicode="&#x422;" horiz-adv-x="608" 
d="M290 564h-211l29 136h587l-29 -136h-211l-119 -564h-165z" />
    <glyph glyph-name="afii10037" unicode="&#x423;" horiz-adv-x="639" 
d="M371 353l197 347h181l-346 -557c-40 -65 -103 -156 -250 -156c-36 0 -67 4 -103 13l28 136c22 -6 50 -11 74 -11c52 0 80 21 106 68l-159 507h179z" />
    <glyph glyph-name="afii10038" unicode="&#x424;" horiz-adv-x="942" 
d="M328 -26l21 99h-26c-44 0 -279 12 -279 249c0 165 132 319 400 319h25l20 99h165l-20 -99h27c57 0 280 -14 280 -249c0 -200 -172 -319 -400 -319h-27l-21 -99h-165zM392 209l63 296h-11c-25 0 -222 -5 -222 -184c0 -83 63 -112 156 -112h14zM528 209h14
c46 0 221 11 221 184c0 118 -127 112 -157 112h-15z" />
    <glyph glyph-name="afii10039" unicode="&#x425;" horiz-adv-x="685" 
d="M344 236l-190 -236h-208l325 364l-154 336h188l85 -221l171 221h201l-299 -340l169 -360h-196z" />
    <glyph glyph-name="afii10040" unicode="&#x426;" horiz-adv-x="789" 
d="M214 136h272l120 564h165l-120 -564h99l-71 -294h-145l34 158h-548l149 700h165z" />
    <glyph glyph-name="afii10041" unicode="&#x427;" horiz-adv-x="684" 
d="M138 700h165l-37 -169c-5 -21 -6 -37 -6 -52c0 -60 55 -66 115 -66c36 0 70 3 106 8l60 279h165l-149 -700h-165l61 285c-50 -6 -95 -8 -148 -8c-110 0 -215 19 -215 157c0 26 2 52 8 79z" />
    <glyph glyph-name="afii10042" unicode="&#x428;" horiz-adv-x="1081" 
d="M214 136h220l119 564h165l-119 -564h220l119 564h165l-148 -700h-935l148 700h165z" />
    <glyph glyph-name="afii10043" unicode="&#x429;" horiz-adv-x="1121" 
d="M214 136h220l119 564h165l-119 -564h220l119 564h165l-119 -564h99l-69 -288h-145l32 152h-881l148 700h165z" />
    <glyph glyph-name="afii10044" unicode="&#x42a;" horiz-adv-x="774" 
d="M404 700l-54 -254h145c88 0 239 -16 239 -202c0 -125 -99 -244 -310 -244h-333l119 564h-131l29 136h296zM322 310l-37 -174h157c38 0 117 19 117 90c0 56 -31 84 -103 84h-134z" />
    <glyph glyph-name="afii10045" unicode="&#x42b;" horiz-adv-x="961" 
d="M333 700l-53 -254h145c102 0 239 -24 239 -202c0 -125 -94 -244 -311 -244h-333l148 700h165zM251 310l-37 -174h157c28 0 118 13 118 90c0 69 -51 84 -103 84h-135zM818 700h165l-148 -700h-165z" />
    <glyph glyph-name="afii10046" unicode="&#x42c;" horiz-adv-x="703" 
d="M333 700l-54 -254h145c64 0 239 -4 239 -202c0 -125 -95 -244 -311 -244h-332l148 700h165zM251 310l-37 -174h157c26 0 117 13 117 90c0 60 -36 84 -103 84h-134z" />
    <glyph glyph-name="afii10047" unicode="&#x42d;" horiz-adv-x="777" 
d="M261 467h-174c22 85 99 253 357 253c55 0 322 5 322 -291c0 -277 -164 -449 -420 -449c-276 0 -309 157 -309 234c0 13 1 25 3 38h168c-1 -6 -1 -12 -1 -18c0 -76 55 -118 147 -118c160 0 196 124 205 168h-267l28 136h266c1 7 2 13 2 20c0 70 -25 144 -154 144
c-44 0 -134 -10 -173 -117z" />
    <glyph glyph-name="afii10048" unicode="&#x42e;" horiz-adv-x="1086" 
d="M277 435h97c40 133 155 285 394 285c70 0 307 -12 307 -289c0 -236 -148 -451 -417 -451c-244 0 -312 160 -312 289v30h-98l-63 -299h-165l148 700h165zM671 116c146 0 226 145 226 292c0 100 -37 176 -148 176c-136 0 -225 -125 -225 -292c0 -106 43 -176 147 -176z" />
    <glyph glyph-name="afii10049" unicode="&#x42f;" horiz-adv-x="710" 
d="M470 242h-98l-184 -242h-192l221 258c-71 12 -139 64 -139 195c0 164 141 247 301 247h353l-148 -700h-165zM538 564h-146c-39 0 -136 -15 -136 -109c0 -70 73 -77 102 -77h141z" />
    <glyph glyph-name="afii10065" unicode="&#x430;" horiz-adv-x="608" 
d="M236 344h-159c47 182 225 183 287 183c169 0 204 -72 204 -134c0 -19 -5 -37 -9 -56l-51 -232c-3 -12 -9 -43 -9 -59c0 -27 10 -32 17 -33v-13h-159l-3 50h-3c-66 -64 -140 -69 -175 -69c-54 0 -159 12 -159 128c0 156 165 175 255 186c83 11 138 4 138 82
c0 23 -15 48 -64 48c-30 0 -93 -6 -110 -81zM382 210l8 32c-11 -6 -25 -12 -107 -27c-41 -7 -108 -24 -108 -89c0 -37 46 -43 69 -43c109 0 135 114 138 127z" />
    <glyph glyph-name="afii10066" unicode="&#x431;" horiz-adv-x="622" 
d="M538 747h123c-43 -155 -177 -129 -316 -161c-100 -23 -162 -75 -203 -213h3c29 63 100 154 236 154c155 0 213 -115 213 -232c0 -169 -119 -314 -317 -314c-73 0 -248 12 -248 245c0 171 71 391 255 459c162 60 220 7 254 62zM191 240c-3 -19 -4 -38 -4 -57
c0 -41 12 -100 90 -100c114 0 159 136 159 221c0 36 -7 121 -91 121c-92 0 -141 -97 -154 -185z" />
    <glyph glyph-name="afii10067" unicode="&#x432;" horiz-adv-x="581" 
d="M116 508h294c29 0 142 2 142 -106c0 -83 -65 -124 -122 -136l-1 -3c39 -4 99 -30 99 -108c0 -148 -158 -155 -220 -155h-301zM246 406l-21 -99h78c45 0 95 9 95 62c0 30 -31 37 -70 37h-82zM205 214l-24 -112h94c81 0 99 33 99 60c0 45 -38 52 -78 52h-91z" />
    <glyph glyph-name="afii10068" unicode="&#x433;" horiz-adv-x="462" 
d="M246 406l-87 -406h-152l109 508h389l-23 -102h-236z" />
    <glyph glyph-name="afii10069" unicode="&#x434;" horiz-adv-x="676" 
d="M-33 102h67c82 97 120 194 145 312l20 94h436l-87 -406h84l-58 -234h-130l29 132h-390l-28 -132h-130zM461 406h-143l-12 -53c-31 -137 -81 -212 -114 -251h204z" />
    <glyph glyph-name="afii10070" unicode="&#x435;" horiz-adv-x="628" 
d="M396 147h154c-29 -72 -99 -166 -277 -166c-212 0 -243 137 -243 221c0 116 72 325 322 325c207 0 243 -122 243 -209c0 -27 -10 -66 -19 -95h-388c-3 -14 -4 -27 -4 -41c0 -82 56 -99 102 -99c49 0 96 26 110 64zM205 302h232c1 5 4 29 4 44c0 82 -84 79 -99 79
c-39 0 -107 -14 -137 -123z" />
    <glyph glyph-name="afii10072" unicode="&#x436;" horiz-adv-x="773" 
d="M261 0l51 227h-3l-189 -227h-183l255 274l-134 234h167l100 -211h2l43 211h145l-48 -211h3l183 211h173l-236 -248l142 -260h-176l-101 227h-2l-46 -227h-146z" />
    <glyph glyph-name="afii10073" unicode="&#x437;" horiz-adv-x="572" 
d="M5 170h144c-2 -7 -3 -14 -3 -21c0 -44 48 -66 96 -66c39 0 117 11 117 74c0 44 -32 58 -82 58h-57l19 93h70c46 0 77 33 77 63c0 54 -58 54 -80 54c-27 0 -93 -7 -112 -80h-148c36 165 188 182 278 182c194 0 220 -75 220 -138c0 -78 -62 -109 -117 -120v-3
c62 -16 90 -49 90 -105c0 -60 -33 -180 -276 -180c-118 0 -240 24 -240 156c0 11 1 22 4 33z" />
    <glyph glyph-name="afii10074" unicode="&#x438;" horiz-adv-x="642" 
d="M197 178l258 330h180l-109 -508h-152l71 330l-258 -330h-180l109 508h152z" />
    <glyph glyph-name="afii10075" unicode="&#x439;" horiz-adv-x="642" 
d="M197 178l258 330h180l-109 -508h-152l71 330l-258 -330h-180l109 508h152zM212 700h112c-7 -24 -3 -67 79 -67c40 0 85 18 94 67h111c-31 -124 -170 -138 -220 -138c-166 0 -183 89 -176 138z" />
    <glyph glyph-name="afii10076" unicode="&#x43a;" horiz-adv-x="537" 
d="M222 300l197 208h174l-253 -249l156 -259h-171l-118 225h-3l-45 -225h-152l109 508h152l-48 -208h2z" />
    <glyph glyph-name="afii10077" unicode="&#x43b;" horiz-adv-x="628" 
d="M-42 -2l23 105c8 -1 15 -2 23 -2c60 0 97 32 133 190l50 217h434l-109 -508h-152l87 406h-137l-25 -114c-59 -270 -143 -300 -257 -300c-23 0 -47 2 -70 6z" />
    <glyph glyph-name="afii10078" unicode="&#x43c;" horiz-adv-x="792" 
d="M292 0l-63 350h-2l-2 -26l-69 -324h-149l109 508h202l58 -344h3l190 344h216l-109 -508h-149l69 324l9 26h-3l-197 -350h-113z" />
    <glyph glyph-name="afii10079" unicode="&#x43d;" horiz-adv-x="610" 
d="M205 215l-46 -215h-152l109 508h152l-41 -191h183l41 191h152l-109 -508h-152l46 215h-183z" />
    <glyph glyph-name="afii10080" unicode="&#x43e;" horiz-adv-x="631" 
d="M276 -19c-213 0 -247 134 -247 227c0 122 76 319 324 319c96 0 248 -28 248 -228c0 -160 -113 -318 -325 -318zM292 83c99 0 151 106 151 226c0 28 -1 116 -105 116c-115 0 -151 -135 -151 -229c0 -38 9 -113 105 -113z" />
    <glyph glyph-name="afii10081" unicode="&#x43f;" horiz-adv-x="623" 
d="M246 406l-87 -406h-152l109 508h500l-109 -508h-152l87 406h-196z" />
    <glyph glyph-name="afii10082" unicode="&#x440;" horiz-adv-x="637" 
d="M117 508h134l-12 -52h3c67 65 140 71 179 71c132 0 187 -95 187 -202c0 -138 -84 -342 -286 -342c-34 0 -115 8 -151 69l-51 -237h-152zM205 262c-4 -19 -7 -39 -7 -59c0 -64 27 -118 97 -118c110 0 155 133 155 222c0 99 -58 118 -98 118c-44 0 -119 -25 -147 -163z" />
    <glyph glyph-name="afii10083" unicode="&#x441;" horiz-adv-x="596" 
d="M397 192h150c-14 -55 -70 -211 -276 -211c-169 0 -241 97 -241 217c0 130 73 329 312 329c188 0 229 -95 229 -169c0 -10 0 -21 -1 -31h-146c1 6 1 11 1 17c0 75 -50 81 -83 81c-112 0 -154 -131 -154 -225c0 -112 68 -117 99 -117c43 0 88 21 110 109z" />
    <glyph glyph-name="afii10084" unicode="&#x442;" horiz-adv-x="512" 
d="M213 406h-168l22 102h488l-22 -102h-168l-87 -406h-152z" />
    <glyph glyph-name="afii10085" unicode="&#x443;" horiz-adv-x="555" 
d="M2 -185l22 102c11 -5 27 -7 48 -7c52 0 69 36 88 71l14 25l-116 502h163l67 -344l163 344h161l-290 -535c-64 -117 -112 -167 -215 -167c-38 0 -77 3 -105 9z" />
    <glyph glyph-name="afii10086" unicode="&#x444;" horiz-adv-x="854" 
d="M258 -185l36 171c-183 4 -263 87 -263 225c0 157 113 311 377 309l38 180h152l-38 -180c242 4 263 -152 263 -226c0 -122 -84 -300 -377 -308l-36 -171h-152zM327 88l70 330h-26c-103 0 -186 -84 -186 -207c0 -46 14 -121 142 -123zM527 418l-70 -330
c150 -3 212 115 212 210c0 106 -87 121 -142 120z" />
    <glyph glyph-name="afii10087" unicode="&#x445;" horiz-adv-x="541" 
d="M292 363l114 145h183l-233 -251l126 -257h-161l-68 153l-125 -153h-182l246 270l-125 238h166z" />
    <glyph glyph-name="afii10088" unicode="&#x446;" horiz-adv-x="649" 
d="M181 102h188l87 406h152l-87 -406h84l-58 -234h-130l28 132h-438l109 508h152z" />
    <glyph glyph-name="afii10089" unicode="&#x447;" horiz-adv-x="563" 
d="M92 508h152l-32 -148c-2 -10 -4 -19 -4 -29c0 -42 34 -43 78 -43c12 0 39 0 72 4l46 216h152l-108 -508h-152l40 190c-12 -1 -59 -4 -98 -4c-175 0 -185 60 -185 114c0 18 1 35 5 53z" />
    <glyph glyph-name="afii10090" unicode="&#x448;" horiz-adv-x="909" 
d="M181 102h165l87 406h152l-87 -406h165l87 406h152l-109 -508h-786l109 508h152z" />
    <glyph glyph-name="afii10091" unicode="&#x449;" horiz-adv-x="943" 
d="M181 102h165l87 406h152l-87 -406h165l87 406h152l-87 -406h83l-57 -234h-131l29 132h-732l109 508h152z" />
    <glyph glyph-name="afii10092" unicode="&#x44a;" horiz-adv-x="642" 
d="M67 508h285l-39 -181h94c70 0 188 -3 188 -136c0 -67 -37 -191 -222 -191h-282l87 406h-133zM291 225l-26 -123h67c55 0 105 14 105 66c0 29 -18 57 -81 57h-65z" />
    <glyph glyph-name="afii10093" unicode="&#x44b;" horiz-adv-x="796" 
d="M116 508h152l-39 -181h94c70 0 188 -3 188 -136c0 -67 -37 -191 -222 -191h-282zM207 225l-26 -123h67c78 0 105 29 105 66s-24 57 -81 57h-65zM637 508h152l-109 -508h-152z" />
    <glyph glyph-name="afii10094" unicode="&#x44c;" horiz-adv-x="557" 
d="M114 508h152l-40 -180h97c69 0 187 -2 187 -137c0 -67 -37 -191 -222 -191h-281zM206 226l-28 -124h69c55 0 105 14 105 66c0 56 -56 58 -81 58h-65z" />
    <glyph glyph-name="afii10095" unicode="&#x44d;" horiz-adv-x="618" 
d="M230 206l20 102h176c2 9 3 19 3 28c0 17 1 89 -97 89c-99 0 -129 -69 -138 -99h-139c19 77 84 201 285 201c213 0 247 -128 247 -215c0 -124 -73 -331 -335 -331c-184 0 -233 86 -233 185c0 9 1 17 2 26h142c-1 -7 -1 -14 -1 -21c0 -11 3 -88 104 -88
c63 0 109 27 141 123h-177z" />
    <glyph glyph-name="afii10096" unicode="&#x44e;" horiz-adv-x="868" 
d="M227 317h63c34 104 124 210 304 210c208 0 244 -133 244 -228c0 -119 -78 -318 -320 -318c-213 0 -249 136 -246 234h-67l-46 -215h-152l109 508h152zM533 83c117 0 147 154 147 226c0 65 -24 116 -101 116c-114 0 -149 -136 -149 -229c0 -108 78 -113 103 -113z" />
    <glyph glyph-name="afii10097" unicode="&#x44f;" horiz-adv-x="583" 
d="M305 176l-132 -176h-182l167 187c-51 5 -107 39 -107 128c0 95 66 193 226 193h299l-109 -508h-152l38 176h-48zM402 406h-80c-99 0 -112 -50 -112 -72c0 -53 53 -56 80 -56h85z" />
    <glyph glyph-name="Euro" unicode="&#x20ac;" horiz-adv-x="658" 
d="M692 676l-30 -139c-21 27 -71 54 -155 54c-107 0 -171 -49 -204 -120h305l-56 -94h-282c-2 -6 -5 -15 -7 -26c-3 -11 -5 -24 -5 -32h259l-57 -93h-207c2 -72 50 -117 152 -117c78 0 142 27 178 54l-30 -140c-27 -17 -95 -42 -194 -42c-173 0 -262 81 -258 245h-91l57 93
h44c1 8 3 18 6 31c2 12 4 20 7 27h-81l56 94h53c60 139 170 250 365 250c89 0 152 -26 175 -45z" />
    </font>
</defs>
</svg>
